# xmcd
#
# Track frame offsets:
#	182
#	14175
#	29610
#	45010
#	72095
#	95582
#	121780
#	148952
#	168885
#	187072
#	210340
#	243997
#	267315
# Disc length: 3841 seconds
# Revision: 1
# Processed by: cddbd v1.5.2PL0 Copyright (c) Steve Scherf et al.
#
# Submitted via: libkcddb 0.31
#
DISCID=b60eff0d
DTITLE=Gaston Litaize - Missa Solemnior
DYEAR=1996
DGENRE=Orgue
TTITLE0=Eric Lebrun - Marie-Ange Leurent - Prélude liturgique XI
TTITLE1=Eric Lebrun - Marie-Ange Leurent - Pièce en trio
TTITLE2=Eric Lebrun - Marie-Ange Leurent - Prélude liturgique IX
TTITLE3=Eric Lebrun - Marie-Ange Leurent - Ensemble Vocal des Voges - Sébastien Durand - Missa Solemnior (1954) - Kyrie
TTITLE4=Eric Lebrun - Marie-Ange Leurent - Ensemble Vocal des Voges - Sébastien Durand - Missa Solemnior (1954) - Gloria
TTITLE5=Eric Lebrun - Marie-Ange Leurent - Ensemble Vocal des Voges - Sébastien Durand - Missa Solemnior (1954) - Sanctus
TTITLE6=Eric Lebrun - Marie-Ange Leurent - Ensemble Vocal des Voges - Sébastien Durand - Missa Solemnior (1954) - Agnus Dei
TTITLE7=Eric Lebrun - Marie-Ange Leurent - Offerte vobis pacem
TTITLE8=Eric Lebrun - Marie-Ange Leurent - Epiphanie (1984)
TTITLE9=Eric Lebrun - Marie-Ange Leurent - Reges Tharsis (1991)
TTITLE10=Eric Lebrun - Marie-Ange Leurent - Sonata à deux (1991) - Choral
TTITLE11=Eric Lebrun - Marie-Ange Leurent - Sonata à deux (1991) - Interlude
TTITLE12=Eric Lebrun - Marie-Ange Leurent - Sonata à deux (1991) - Final
EXTD=Orgue Haerpfer-Erman d'Etival
EXTT0=
EXTT1=
EXTT2=
EXTT3=
EXTT4=
EXTT5=
EXTT6=
EXTT7=
EXTT8=
EXTT9=
EXTT10=
EXTT11=
EXTT12=
PLAYORDER=
